<svg xmlns="http://www.w3.org/2000/svg" version="1.1" style="display:none" data-usage="social-icons-svg"><symbol id="url-icon" viewBox="0 0 64 64"><path d="M40.038 24c2.203 0 4.08.801 5.633 2.404C47.224 27.956 48 29.834 48 32.038c0 2.203-.776 4.106-2.329 5.709-1.552 1.552-3.43 2.328-5.633 2.328h-6.46v-3.08h6.46c1.352 0 2.504-.475 3.455-1.427 1.002-1.002 1.502-2.178 1.502-3.53 0-1.353-.5-2.504-1.502-3.456-.952-1.001-2.103-1.502-3.455-1.502h-6.46V24h6.46zm-14.423 9.615V30.46h12.77v3.155h-12.77zm-5.183-5.033c-.952.952-1.427 2.103-1.427 3.456 0 1.352.475 2.529 1.427 3.53 1.002.952 2.178 1.427 3.53 1.427h6.46v3.08h-6.46c-2.203 0-4.08-.776-5.633-2.329C16.776 36.145 16 34.241 16 32.038c0-2.204.776-4.082 2.329-5.634C19.88 24.8 21.759 24 23.962 24h6.46v3.08h-6.46c-1.352 0-2.529.5-3.53 1.502z"/></symbol><symbol id="url-mask" viewBox="0 0 64 64"><path fill-rule="evenodd" clip-rule="evenodd" d="M64 0H0v64h64V0zM45.671 26.404C44.12 24.8 42.241 24 40.038 24h-6.46v3.08h6.46c1.352 0 2.504.5 3.455 1.502 1.002.952 1.502 2.103 1.502 3.456 0 1.352-.5 2.529-1.502 3.53-.952.952-2.103 1.427-3.455 1.427h-6.46v3.08h6.46c2.203 0 4.08-.776 5.633-2.329C47.224 36.145 48 34.241 48 32.038c0-2.204-.776-4.082-2.329-5.634zm-7.286 4.056h-12.77v3.155h12.77V30.46zm-19.38 1.578c0-1.353.475-2.504 1.427-3.456 1.002-1.001 2.178-1.502 3.53-1.502h6.46V24h-6.46c-2.203 0-4.08.801-5.633 2.404C16.776 27.956 16 29.834 16 32.038c0 2.203.776 4.106 2.329 5.709 1.552 1.552 3.43 2.328 5.633 2.328h6.46v-3.08h-6.46c-1.352 0-2.529-.475-3.53-1.427-.952-1.002-1.427-2.178-1.427-3.53z"/></symbol><symbol id="facebook-unauth-icon" viewBox="0 0 64 64"><path d="M34.1,47V33.3h4.6l0.7-5.3h-5.3v-3.4c0-1.5,0.4-2.6,2.6-2.6l2.8,0v-4.8c-0.5-0.1-2.2-0.2-4.1-0.2 c-4.1,0-6.9,2.5-6.9,7V28H24v5.3h4.6V47H34.1z"/></symbol><symbol id="facebook-unauth-mask" viewBox="0 0 64 64"><path d="M0,0v64h64V0H0z M39.6,22l-2.8,0c-2.2,0-2.6,1.1-2.6,2.6V28h5.3l-0.7,5.3h-4.6V47h-5.5V33.3H24V28h4.6V24 c0-4.6,2.8-7,6.9-7c2,0,3.6,0.1,4.1,0.2V22z"/></symbol></svg>